# Made in Blockbench 4.11.1
mtllib spookjam_meat_pile_red.mtl

o cylinder
v 0 0 0
v 0 0.25 0
v 0 0 0.625
v 0 0.1875 0.5
v 0.34374999999999994 0 0.5953924651018017
v 0.12499999999999997 0.25 0.37051270189221935
v 0.5328924651018015 0 0.34375000000000006
v 0.2455127018922193 0.25 0.25000000000000006
v 0.625 0 4.209723372069027e-17
v 0.3125 0.125 3.061616997868383e-17
v 0.5953924651018017 0 -0.34374999999999983
v 0.43301270189221935 0.125 -0.2499999999999999
v 0.34374999999999994 0 -0.5953924651018017
v 0.24999999999999997 0.1875 -0.30801270189221935
v 8.419446744138054e-17 0 -0.6875
v 0.06250000000000006 0.125 -0.4375
v -0.46875000000000006 0 -0.7203924651018015
v -0.25000000000000006 0.1875 -0.3705127018922193
v -0.7203924651018014 0 -0.46875000000000033
v -0.4330127018922192 0.1875 -0.3125000000000002
v -0.6875 0 -1.262917011620708e-16
v -0.375 0.1875 0.06249999999999991
v -0.5953924651018015 0 0.34375000000000006
v -0.4330127018922193 0.1875 0.25000000000000006
v -0.34375000000000033 0 0.5328924651018014
v -0.2500000000000002 0.25 0.4330127018922192
vt 0.5509867187499999 0.703946875
vt 0.46504921875000005 0.7113484375
vt 0.46504921875000005 0.5550984375
vt 0.5212497012161189 0.8913964488087145
vt 0.6075043887161189 0.8913964488087145
vt 0.5578434512161189 0.9785245738087145
vt 0.5239309512161189 0.9467136363087145
vt 0.1895472135508749 0.6600454021841528
vt 0.22358902418427345 0.6933582536259408
vt 0.19233892957672896 0.7859866590521636
vt 0.59827265625 0.6410359375
vt 0.5509867187499999 0.703946875
vt 0.46504921875000005 0.5550984375
vt 0.6075043887161189 0.8913964488087145
vt 0.67068012060894 0.9383274289796676
vt 0.5944310066165731 1
vt 0.5578812792057773 0.978458206116573
vt 0.22358902418427345 0.6933582536259408
vt 0.25371714918427346 0.7234863786259409
vt 0.19233902418427345 0.7859863786259409
vt 0.6212992187499999 0.5550984375
vt 0.59827265625 0.6410359375
vt 0.46504921875000005 0.5550984375
vt 0.3459255888561387 0.706712835500438
vt 0.3580569671019753 0.7948506147918345
vt 0.27438611527938056 0.7859562089828189
vt 0.25371714918427346 0.7234863786259409
vt 0.25371714918427346 0.7234863786259409
vt 0.27628820813838173 0.7917050895837195
vt 0.19233917606384307 0.7859862239703026
vt 0.61389765625 0.4691609375
vt 0.6212992187499999 0.5550984375
vt 0.46504921875000005 0.5550984375
vt 0.36536334539118787 0.8031143306880073
vt 0.3472520279112481 0.8874461235947366
vt 0.299881686460191 0.8569525546353549
vt 0.28455537321003466 0.7926157647685826
vt 0.27628820813838173 0.7917050895837195
vt 0.29988237824080677 0.8569529999532325
vt 0.19234059763791 0.7859863208122893
vt 0.5509867187499999 0.40625
vt 0.61389765625 0.4691609375
vt 0.46504921875000005 0.5550984375
vt 0.3472520279112481 0.8874461235947366
vt 0.284115990265433 0.950130086671019
vt 0.2505788508251949 0.8677681179212975
vt 0.29988237824080677 0.8569529999532324
vt 0.29988237824080677 0.8569529999532325
vt 0.2505791236869811 0.8677680580669105
vt 0.19234105636945556 0.785986623528631
vt 0.46504921875000005 0.3832234375
vt 0.5509867187499999 0.40625
vt 0.46504921875000005 0.5550984375
vt 0.284115990265433 0.950130086671019
vt 0.20027439976863437 0.9798962785592942
vt 0.20819021726824422 0.9087327625723134
vt 0.25061959039235054 0.8678681679259478
vt 0.2505791236869811 0.8677680580669105
vt 0.20137386337544208 0.900450135163352
vt 0.19234055556607155 0.7859859202700743
vt 0.34786171875000005 0.375
vt 0.46504921875000005 0.3832234375
vt 0.46504921875000005 0.5550984375
vt 0.20027439976863437 0.9798962785592942
vt 0.08453237624547966 1
vt 0.1279360517819842 0.8953344834055441
vt 0.2081843161021584 0.908785814291496
vt 0.390625 0.7758052631184905
vt 0.46597218454142186 0.806640941471868
vt 0.390625 0.890625
vt 0.28495078125 0.4379109375
vt 0.34786171875000005 0.375
vt 0.46504921875000005 0.5550984375
vt 0.08040408382945813 0.9816550130769602
vt 0.011826645739836938 0.9249754447862024
vt 0.08790039474164758 0.8693198342794807
vt 0.13282492690373573 0.8818431385854602
vt 0.13282492690373573 0.8818431385854602
vt 0.08659084605501273 0.868954780356447
vt 0.1923396762373027 0.7859865968718047
vt 0.29317421875000005 0.5550984375
vt 0.28495078125 0.4379109375
vt 0.46504921875000005 0.5550984375
vt 0.001824154608812134 0.9099740350622091
vt 0.005984217460854591 0.792572716917705
vt 0.09668278816773933 0.7747171148925324
vt 0.08659084605501273 0.868954780356447
vt 0.08659084605501273 0.868954780356447
vt 0.0966922783660582 0.7746284962575491
vt 0.19233908363198077 0.7859870618167786
vt 0.31620078125 0.6410359375
vt 0.29317421875000005 0.5550984375
vt 0.46504921875000005 0.5550984375
vt 0.484375 0.8739618787427331
vt 0.5200250526114643 0.792448001241032
vt 0.578125 0.8296773205130268
vt 0.578125 0.875
vt 0.0966922783660582 0.7746284962575491
vt 0.08031166999585788 0.7283763118920267
vt 0.1923386666732352 0.7859870123007155
vt 0.37911171875000005 0.688321875
vt 0.31620078125 0.6410359375
vt 0.46504921875000005 0.5550984375
vt 0.36056987939106 0.9369267876474212
vt 0.43392406829317964 0.9084162111798687
vt 0.46318612763259576 0.9733998949299016
vt 0.40007687039471485 0.9878686778504961
vt 0.08031166999585788 0.7283763118920267
vt 0.12604813049970104 0.6800129652112765
vt 0.19233894052892553 0.7859871531330024
vt 0.46504921875000005 0.7113484375
vt 0.37911171875000005 0.688321875
vt 0.46504921875000005 0.5550984375
vt 0.43392406829317964 0.9084162111798687
vt 0.5212497012161189 0.8913964488087145
vt 0.5239771631922059 0.9476670410810961
vt 0.46297914864025475 0.9729402465768867
vt 0.12604813049970104 0.6800129652112765
vt 0.1895472135508749 0.6600454021841528
vt 0.1923389405289255 0.7859871531330024
vn 0 -1 0
vn 0.06155644387671805 0.6967336450107835 0.7146838686630895
vn -0.3450693639195804 0.9313293772583257 0.1164161721572907
vn 0 -1 0
vn 0.5260388741746117 0.7529620272014096 0.39538751681085077
vn 0 1 0
vn 0 -1 0
vn 0.3695652814495501 0.9239132036238753 0.09902471871498754
vn 0.3489084179977992 0.8722710449944978 -0.342645793662318
vn 0 -1 0
vn 0.5905980512124419 0.8053609789260574 -0.050868807016960914
vn 0.3655782280110617 0.9139455700276544 0.17622728004233157
vn 0 -1 0
vn 0.40383568916423895 0.8208736031293057 -0.40383568916423884
vn 0.30669119050694976 0.9501526815412092 0.05612838342121814
vn 0 -1 0
vn 0.12556344058936303 0.874436559410637 -0.46860913985265923
vn -0.11764956025000317 0.9502802845544279 -0.2883157327655513
vn 0 -1 0
vn 0.03428814882613359 0.8718115642368989 -0.48863986668392995
vn 0.13704738612454176 0.9574510713594435 -0.2539792509420493
vn 0 -1 0
vn -0.36278404373897016 0.8583562635740487 -0.3627840437389704
vn -0.043588832171523643 0.9895408494488319 -0.13750971231882891
vn 0 -1 0
vn -0.5195046006276868 0.8536896858842803 0.03645394548559247
vn -0.16032504085310037 0.9867526152542522 0.024802370135650058
vn 0 -1 0
vn -0.6947465906068658 0.6947465906068658 0.1861567878973855
vn -0.17282877950762285 0.9834992665712209 -0.053473410474516356
vn 0 -1 0
vn -0.5276421071144771 0.47832636988638316 0.7019955061616204
vn -0.21004201260420163 0.9701425001453319 -0.12126781251816672
vn 0 -1 0
vn -0.21760471624162045 0.541407904653557 0.8121118569803355
vn 0.21004201260420127 0.9701425001453321 0.12126781251816651
usemtl m_4a8d4e11-29ae-b2fd-d6ba-ee753ea539a4
f 5/1/1 3/2/1 1/3/1
f 3/4/2 5/5/2 6/6/2 4/7/2
f 4/8/3 6/9/3 2/10/3
f 7/11/4 5/12/4 1/13/4
f 5/14/5 7/15/5 8/16/5 6/17/5
f 6/18/6 8/19/6 2/20/6
f 9/21/7 7/22/7 1/23/7
f 7/24/8 9/25/8 10/26/8 8/27/8
f 8/28/9 10/29/9 2/30/9
f 11/31/10 9/32/10 1/33/10
f 9/34/11 11/35/11 12/36/11 10/37/11
f 10/38/12 12/39/12 2/40/12
f 13/41/13 11/42/13 1/43/13
f 11/44/14 13/45/14 14/46/14 12/47/14
f 12/48/15 14/49/15 2/50/15
f 15/51/16 13/52/16 1/53/16
f 13/54/17 15/55/17 16/56/17 14/57/17
f 14/58/18 16/59/18 2/60/18
f 17/61/19 15/62/19 1/63/19
f 15/64/20 17/65/20 18/66/20 16/67/20
f 16/68/21 18/69/21 2/70/21
f 19/71/22 17/72/22 1/73/22
f 17/74/23 19/75/23 20/76/23 18/77/23
f 18/78/24 20/79/24 2/80/24
f 21/81/25 19/82/25 1/83/25
f 19/84/26 21/85/26 22/86/26 20/87/26
f 20/88/27 22/89/27 2/90/27
f 23/91/28 21/92/28 1/93/28
f 21/94/29 23/95/29 24/96/29 22/97/29
f 22/98/30 24/99/30 2/100/30
f 25/101/31 23/102/31 1/103/31
f 23/104/32 25/105/32 26/106/32 24/107/32
f 24/108/33 26/109/33 2/110/33
f 3/111/34 25/112/34 1/113/34
f 25/114/35 3/115/35 4/116/35 26/117/35
f 26/118/36 4/119/36 2/120/36
o plane
v -0.2161752437408627 0.26916018530477354 0
v -0.2161752437408627 0.26916018530477354 -0.125
v -0.34156722704109277 0.08192210017240836 0
v -0.34156722704109277 0.08192210017240836 -0.125
v -0.009123075135859082 0.4225735141780014 0
v -0.009123075135859082 0.4225735141780014 -0.125
v 0.13027958095086983 0.4126664724416822 0
v 0.13027958095086983 0.4126664724416822 -0.125
vt 0.625 0.3418265625
vt 0.59375 0.3418265625
vt 0.59375 0.28548906249999995
vt 0.625 0.28548906249999995
vt 0.625 0.3418265625
vt 0.625 0.40625
vt 0.59375 0.40625
vt 0.59375 0.3418265625
vt 0.296875 1
vt 0.296875 0.96875
vt 0.328125 0.96875
vt 0.328125 1
vn -0.8308880205100729 0.556439661933666 0
vn -0.5953311617147653 0.803480434043884 0
vn 0.07088902009067932 0.9974842088126424 0
usemtl m_4a8d4e11-29ae-b2fd-d6ba-ee753ea539a4
f 27/121/37 28/122/37 30/123/37 29/124/37
f 27/125/38 31/126/38 32/127/38 28/128/38
f 31/129/39 33/130/39 34/131/39 32/132/39
o plane
v -0.39494315220029325 0.2222844671679165 -0.39576911446681967
v -0.37858247190205985 0.18278629090227114 -0.5132306920650582
v -0.5661898476928879 0.07790362541121836 -0.37107110206715854
v -0.5498291673946546 0.03840544914557298 -0.4885326796653971
v -0.155339855839418 0.3171228175945986 -0.3942866633383102
v -0.1389791755411846 0.27762464132895326 -0.5117482409365487
v -0.02539127552530629 0.2766394980839157 -0.3625736168788036
v -0.00903059522707289 0.2371413218182703 -0.48003519447704207
vt 0.234375 0.3262015625
vt 0.203125 0.3262015625
vt 0.203125 0.26986406249999995
vt 0.234375 0.26986406249999995
vt 0.234375 0.3262015625
vt 0.234375 0.390625
vt 0.203125 0.390625
vt 0.203125 0.3262015625
vt 0.125 0.640625
vt 0.125 0.609375
vt 0.15625 0.609375
vt 0.15625 0.640625
vn -0.6366974132821746 0.6997505069804967 -0.32398399945109285
vn -0.34401433554290145 0.8744766736139323 -0.341971759427717
vn 0.34390894791792676 0.9034608921627466 -0.25590047259526305
usemtl m_4a8d4e11-29ae-b2fd-d6ba-ee753ea539a4
f 35/133/40 36/134/40 38/135/40 37/136/40
f 35/137/41 39/138/41 40/139/41 36/140/41
f 39/141/42 41/142/42 42/143/42 40/144/42
o plane
v 0.020857436119312386 0.27555478735172456 0.23728526898196012
v -0.07371649650003989 0.21344213077892116 0.2904151961640974
v 0.1604715231840702 0.10595310383323112 0.28752893167455285
v 0.06589759056471792 0.04384044726042775 0.3406588588566901
v -0.1476197583489519 0.4207583632965947 0.10714070906136652
v -0.2421936909683042 0.35864570672379137 0.1602706362435038
v -0.2159509261268126 0.42052134939722097 -0.014769279596353269
v -0.31052485874616487 0.35840869282441756 0.038360647585784
vt 0.28125 0.3262015625
vt 0.25 0.3262015625
vt 0.25 0.26986406249999995
vt 0.28125 0.26986406249999995
vt 0.28125 0.3262015625
vt 0.28125 0.390625
vt 0.25 0.390625
vt 0.25 0.3262015625
vt 0.375 0.75
vt 0.375 0.71875
vt 0.40625 0.71875
vt 0.40625 0.75
vn 0.2091053854952102 0.43202454862369133 0.8772854308281857
vn -0.011454478355137798 0.6599907031652157 0.751186439348512
vn -0.43417618374121314 0.8678054326817068 0.24167079360161015
usemtl m_4a8d4e11-29ae-b2fd-d6ba-ee753ea539a4
f 43/145/43 44/146/43 46/147/43 45/148/43
f 43/149/44 47/150/44 48/151/44 44/152/44
f 47/153/45 49/154/45 50/155/45 48/156/45
o cylinder
v 0.1875 0.0625 0
v 0.5557151145324049 0.2605894515534523 0.281219573666451
v 0.07421152662041927 0.11532728271758846 2.631670797947905e-9
v 0.5961831624676172 0.34737345640734635 0.3615680247892488
v 0.21473685374386953 -0.02697798173151557 0.08292674226924406
v 0.5060737076188778 0.154133108753784 0.3239720916901315
v 0.27355161963571123 0.09915069901392706 -0.08292674490091483
v 0.5648884735107194 0.2802617894992266 0.15811860451997262
v 0.2552049016790819 0.059806023122378524 0.16327519339204194
v 0.11467957455563166 0.20211128757148256 0.08034845375446867
v 0.33217408040694646 0.1621804280261948 0.26842385898803756
v 0.2278137878430438 0.34827003756818214 0.2316191506413147
v 0.4058852565392355 0.1784593468314657 0.3069430618682851
v 0.42634360853675035 0.392114824764328 0.3353647539858556
v 0.3140196675709236 0.18593470386782115 -0.002578293778116955
v 0.39098884629878816 0.2883091087716374 0.1025703718178787
v 0.4647000224310771 0.3045880275769083 0.14108957469812622
vt 0.14815781249999999 0.546875
vt 0.12109375 0.59375
vt 0.12109375 0.5625
vt 0.0899501306819557 0.671875
vt 0.04934971999966625 0.653920055926368
vt 0.07790352585970006 0.6079380286384684
vt 0.1015625 0.6190107360475395
vt 0.48046875 0.78125
vt 0.4534046875 0.734375
vt 0.48046875 0.75
vt 0.0940296875 0.546875
vt 0.14815781249999999 0.546875
vt 0.12109375 0.5625
vt 0.0002796875000000004 0.7426234375
vt 0.0002796875000000004 0.7164984375
vt 0.0544078125 0.7164984375
vt 0.0544078125 0.7426234375
vt 0.4534046875 0.734375
vt 0.5075328125 0.734375
vt 0.48046875 0.75
vt 0.12109375 0.59375
vt 0.0940296875 0.546875
vt 0.12109375 0.5625
vt 0.078125 0.47838681369455893
vt 0.1017875440789491 0.4673150905620945
vt 0.13033946172007468 0.5132981656742299
vt 0.08974145859530255 0.53125
vt 0.5075328125 0.734375
vt 0.48046875 0.78125
vt 0.48046875 0.75
vt 0.058890150964080096 0.5191487703149348
vt 0.058890150964080096 0.5503987703149348
vt 0.004762025964080097 0.5503987703149348
vt 0.004762025964080097 0.5191487703149348
vt 0.058890150964080096 0.5503987703149348
vt 0.0646259126236037 0.59142877286168
vt 0.013587876721223045 0.6094522600640594
vt 0.004765144446146022 0.5503987703149348
vt 0.0646259126236037 0.59142877286168
vt 0.07790352585970006 0.6079380286384684
vt 0.04934924929070853 0.6539208139392314
vt 0.013587573220051323 0.609452367241959
vt 0.17492819729788026 0.37852820194426384
vt 0.17492819729788026 0.40977820194426384
vt 0.12080007229788026 0.40977820194426384
vt 0.12080007229788026 0.37852820194426384
vt 0.17492819729788026 0.40977820194426384
vt 0.166102909777043 0.4688311440725158
vt 0.1150659209129675 0.45080573920013556
vt 0.1208031934863547 0.40977820194426384
vt 0.166102909777043 0.4688311440725158
vt 0.13033946172007468 0.5132981656742299
vt 0.10178701753305082 0.4673142425560203
vt 0.11506528863280979 0.4508055158894331
vt 0.2575328125 0.4116953125
vt 0.2575328125 0.4429453125
vt 0.20340468750000001 0.4429453125
vt 0.20340468750000001 0.4116953125
vt 0.2575328125 0.4429453125
vt 0.2575328125 0.484375
vt 0.20340468750000001 0.484375
vt 0.20340468750000001 0.4429453125
vt 0.0544078125 0.6953125
vt 0.0544078125 0.7164984375
vt 0.0002796875000000004 0.7164984375
vt 0.0002796875000000004 0.6953125
vn -0.32374438348169904 -0.6942720388311527 -0.642787608982383
vn -0.18044023593057376 -0.11270267518138852 0.9771076850911968
vn 0.906307787036646 -0.42261826174070743 -2.1053366012740515e-8
vn -0.32374438348169904 -0.6942720388311527 -0.642787608982383
vn -0.08339518753438656 -0.7787337561257913 -0.6217869247309092
vn 0.9063077870366458 -0.42261826174070777 -2.1053366976470567e-8
vn -0.32374438348169904 -0.6942720388311527 -0.642787608982383
vn 0.27669687805903076 0.8954253816462303 -0.348786788132935
vn 0.9063077870366463 -0.4226182617407068 -2.105336679838045e-8
vn -0.6884129570856897 -0.2932055921114167 0.6634139592073188
vn -0.6637023423165835 -0.23153613221624447 0.711259601187796
vn -0.4486749012643917 -0.07549715131250342 0.8905004284777664
vn -0.2178948299509561 0.7158238538521245 -0.6634139381539526
vn -0.1928611283148403 0.7737752878658984 -0.6033874286668331
vn 0.012065650313700438 0.9125642148304712 -0.40875539616420103
vn 0.9063077870366458 -0.4226182617407078 -2.1053366199990564e-8
vn 0.8428943972749813 -0.5281752029352398 -0.10276181220066438
vn 0.4119345331248182 -0.7897607053758441 -0.4545194920611079
usemtl m_4a8d4e11-29ae-b2fd-d6ba-ee753ea539a4
f 55/157/46 53/158/46 51/159/46
f 54/160/47 64/161/47 63/162/47 56/163/47
f 54/164/48 56/165/48 52/166/48
f 57/167/49 55/168/49 51/169/49
f 56/170/50 63/171/50 67/172/50 58/173/50
f 56/174/51 58/175/51 52/176/51
f 53/177/52 57/178/52 51/179/52
f 58/180/53 67/181/53 64/182/53 54/183/53
f 58/184/54 54/185/54 52/186/54
f 55/187/55 59/188/55 60/189/55 53/190/55
f 59/191/56 61/192/56 62/193/56 60/194/56
f 61/195/57 63/196/57 64/197/57 62/198/57
f 53/199/58 60/200/58 65/201/58 57/202/58
f 60/203/59 62/204/59 66/205/59 65/206/59
f 62/207/60 64/208/60 67/209/60 66/210/60
f 57/211/61 65/212/61 59/213/61 55/214/61
f 65/215/62 66/216/62 61/217/62 59/218/62
f 66/219/63 67/220/63 63/221/63 61/222/63
o cylinder
v -0.5625 0.375 -0.1875
v -0.1591335697777414 0.07465004446338941 -0.21899090628907983
v -0.5605229660311669 0.48742551390868194 -0.24210398482761888
v -0.04275628458919156 0.053078922257890404 -0.25919058513031346
v -0.5240161960288185 0.36226301655083243 -0.06925548179926776
v -0.17784989141641833 0.12891137907131228 -0.10794854108154024
v -0.6029608379400145 0.27531146954048563 -0.2511405333731133
v -0.25679453332761437 0.041959832060965596 -0.28983359265538583
v -0.4076389108402686 0.34069189434533337 -0.10945516064050138
v -0.44414568084261696 0.4658543917031829 -0.2823036636688525
v -0.2557598246473203 0.28863522944089176 -0.1504900475818908
v -0.22568884535666373 0.38857853615580895 -0.3401794559509108
v -0.2009161211404606 0.2243969808041079 -0.14358459520467393
v -0.0779756871260201 0.21556260217246936 -0.32158067223597764
v -0.4865835527514646 0.2537403473349865 -0.2913402122143469
v -0.3347044665585162 0.2016836824305449 -0.3323750991557364
v -0.27986076305165664 0.13744543379376117 -0.32546964677851953
vt 0.6794078125 0.65625
vt 0.65234375 0.703125
vt 0.65234375 0.671875
vt 0.2618251306819557 0.65625
vt 0.22122471999966625 0.638295055926368
vt 0.24977852585970006 0.5923130286384684
vt 0.2734375 0.6033857360475395
vt 0.52734375 0.375
vt 0.5002796875 0.328125
vt 0.52734375 0.34375
vt 0.6252796875 0.65625
vt 0.6794078125 0.65625
vt 0.65234375 0.671875
vt 0.5940296875 0.8676234375
vt 0.5940296875 0.8414984375
vt 0.6481578125 0.8414984375
vt 0.6481578125 0.8676234375
vt 0.5002796875 0.328125
vt 0.5544078125 0.328125
vt 0.52734375 0.34375
vt 0.65234375 0.703125
vt 0.6252796875 0.65625
vt 0.65234375 0.671875
vt 0 0.40026181369455893
vt 0.023662544078949112 0.3891900905620945
vt 0.05221446172007469 0.4351731656742299
vt 0.011616458595302546 0.453125
vt 0.5544078125 0.328125
vt 0.52734375 0.375
vt 0.52734375 0.34375
vt 0.2307651509640801 0.5035237703149348
vt 0.2307651509640801 0.5347737703149348
vt 0.1766370259640801 0.5347737703149348
vt 0.1766370259640801 0.5035237703149348
vt 0.2307651509640801 0.5347737703149348
vt 0.2365009126236037 0.57580377286168
vt 0.18546287672122305 0.5938272600640594
vt 0.176640144446146 0.5347737703149348
vt 0.2365009126236037 0.57580377286168
vt 0.24977852585970006 0.5923130286384684
vt 0.22122424929070852 0.6382958139392314
vt 0.18546257322005133 0.593827367241959
vt 0.09680319729788026 0.30040320194426384
vt 0.09680319729788026 0.33165320194426384
vt 0.04267507229788026 0.33165320194426384
vt 0.04267507229788026 0.30040320194426384
vt 0.09680319729788026 0.33165320194426384
vt 0.08797790977704302 0.3907061440725158
vt 0.036940920912967495 0.37268073920013556
vt 0.042678193486354696 0.33165320194426384
vt 0.08797790977704302 0.3907061440725158
vt 0.05221446172007469 0.4351731656742299
vt 0.02366201753305082 0.3891892425560203
vt 0.03694028863280979 0.3726805158894331
vt 0.6325328125 0.7241953125
vt 0.6325328125 0.7554453125
vt 0.5784046875 0.7554453125
vt 0.5784046875 0.7241953125
vt 0.6325328125 0.7554453125
vt 0.6325328125 0.796875
vt 0.5784046875 0.796875
vt 0.5784046875 0.7554453125
vt 0.6481578125 0.8203125
vt 0.6481578125 0.8414984375
vt 0.5940296875 0.8414984375
vt 0.5940296875 0.8203125
vn -0.9310182815083998 0.1725689776439929 0.32159743072986935
vn 0.7740864043455697 0.36610671334236006 0.5164843783242647
vn -0.015816271750664163 -0.8994041112694557 0.4368318786209514
vn -0.9310182815083998 0.1725689776439929 0.32159743072986935
vn -0.9046105556753349 -0.06109086807614296 0.42183841503408065
vn -0.01581627175066518 -0.8994041112694559 0.4368318786209514
vn -0.9310182815083998 0.1725689776439929 0.32159743072986935
vn 0.1404354500322756 -0.3162309739524152 -0.9382301719127024
vn -0.01581627175066454 -0.8994041112694562 0.4368318786209507
vn 0.32368670352011597 0.7975082436761151 0.509124266984907
vn 0.397504647942417 0.7843255850406023 0.4762598361345325
vn 0.6640249032053822 0.6129463507469087 0.4282145478952465
vn -0.30787043176945134 0.10189586759334082 -0.9459561456058585
vn -0.2249380712958104 0.09069496423835684 -0.970142921194359
vn 0.04559180555116294 -0.06821089136110889 -0.9966286477752424
vn -0.01581627175066453 -0.8994041112694556 0.4368318786209517
vn -0.16445377818438814 -0.8602477709534975 0.48262690290784577
vn -0.6695131332712196 -0.5139500517911951 0.5362905076925955
usemtl m_4a8d4e11-29ae-b2fd-d6ba-ee753ea539a4
f 72/223/64 70/224/64 68/225/64
f 71/226/65 81/227/65 80/228/65 73/229/65
f 71/230/66 73/231/66 69/232/66
f 74/233/67 72/234/67 68/235/67
f 73/236/68 80/237/68 84/238/68 75/239/68
f 73/240/69 75/241/69 69/242/69
f 70/243/70 74/244/70 68/245/70
f 75/246/71 84/247/71 81/248/71 71/249/71
f 75/250/72 71/251/72 69/252/72
f 72/253/73 76/254/73 77/255/73 70/256/73
f 76/257/74 78/258/74 79/259/74 77/260/74
f 78/261/75 80/262/75 81/263/75 79/264/75
f 70/265/76 77/266/76 82/267/76 74/268/76
f 77/269/77 79/270/77 83/271/77 82/272/77
f 79/273/78 81/274/78 84/275/78 83/276/78
f 74/277/79 82/278/79 76/279/79 72/280/79
f 82/281/80 83/282/80 78/283/80 76/284/80
f 83/285/81 84/286/81 80/287/81 78/288/81