# Blender 3.6.7
# www.blender.org
mtllib burger_patty.mtl
o model_0
v -0.450000 0.000000 0.250000
v -0.450000 0.200000 0.250000
v -0.450000 0.200000 0.150000
v -0.450000 0.000000 0.150000
v -0.450000 0.100000 0.150000
v -0.450000 0.100000 0.050000
v -0.450000 0.000000 0.050000
v -0.450000 0.200000 0.050000
v -0.450000 0.100000 -0.250000
v -0.450000 0.000000 -0.250000
v -0.450000 0.200000 -0.050000
v -0.450000 0.100000 -0.050000
v -0.450000 0.200000 -0.150000
v -0.450000 0.100000 -0.150000
v -0.450000 0.200000 -0.250000
v -0.350000 0.000000 0.350000
v -0.350000 0.100000 0.350000
v -0.350000 0.100000 0.250000
v -0.350000 0.000000 0.250000
v -0.350000 0.200000 0.350000
v -0.350000 0.200000 0.250000
v -0.350000 0.000000 -0.250000
v -0.350000 0.200000 -0.250000
v -0.350000 0.200000 -0.350000
v -0.350000 0.000000 -0.350000
v -0.250000 0.000000 0.450000
v -0.250000 0.100000 0.450000
v -0.250000 0.100000 0.350000
v -0.250000 0.000000 0.350000
v -0.250000 0.200000 0.450000
v -0.250000 0.200000 0.350000
v -0.250000 0.000000 -0.350000
v -0.250000 0.200000 -0.350000
v -0.250000 0.200000 -0.450000
v -0.250000 0.000000 -0.450000
v 0.250000 0.000000 0.450000
v 0.250000 0.000000 0.350000
v 0.250000 0.100000 0.350000
v 0.250000 0.100000 0.450000
v 0.250000 0.200000 0.350000
v 0.250000 0.200000 0.450000
v 0.250000 0.000000 -0.350000
v 0.250000 0.000000 -0.450000
v 0.250000 0.200000 -0.450000
v 0.250000 0.200000 -0.350000
v 0.350000 0.000000 0.350000
v 0.350000 0.000000 0.250000
v 0.350000 0.200000 0.250000
v 0.350000 0.200000 0.350000
v 0.350000 0.000000 -0.250000
v 0.350000 0.000000 -0.350000
v 0.350000 0.100000 -0.350000
v 0.350000 0.100000 -0.250000
v 0.350000 0.200000 -0.350000
v 0.350000 0.200000 -0.250000
v 0.450000 0.000000 0.250000
v 0.450000 0.000000 0.150000
v 0.450000 0.100000 0.150000
v 0.450000 0.100000 0.250000
v 0.450000 0.100000 -0.250000
v 0.450000 0.200000 -0.250000
v 0.450000 0.200000 0.250000
v 0.450000 0.000000 0.050000
v 0.450000 0.100000 0.050000
v 0.450000 0.000000 -0.050000
v 0.450000 0.100000 -0.050000
v 0.450000 0.000000 -0.150000
v 0.450000 0.100000 -0.150000
v 0.450000 0.000000 -0.250000
v -0.150000 0.000000 0.450000
v -0.150000 0.100000 0.450000
v 0.150000 0.000000 0.450000
v 0.150000 0.100000 0.450000
v -0.150000 0.200000 0.450000
v -0.050000 0.100000 0.450000
v -0.050000 0.200000 0.450000
v 0.050000 0.100000 0.450000
v 0.050000 0.200000 0.450000
v 0.150000 0.200000 0.450000
v 0.350000 0.100000 0.250000
v 0.250000 0.100000 -0.350000
v -0.150000 0.200000 -0.450000
v -0.150000 0.000000 -0.450000
v -0.150000 0.100000 -0.450000
v -0.050000 0.100000 -0.450000
v -0.050000 0.000000 -0.450000
v -0.050000 0.200000 -0.450000
v 0.050000 0.200000 -0.450000
v 0.050000 0.000000 -0.450000
v 0.050000 0.100000 -0.450000
v 0.150000 0.100000 -0.450000
v 0.150000 0.000000 -0.450000
v 0.150000 0.200000 -0.450000
v 0.350000 0.000000 0.150000
v -0.350000 0.000000 0.050000
v -0.350000 0.000000 0.150000
v -0.450000 0.000000 -0.050000
v 0.350000 0.000000 -0.050000
v 0.350000 0.000000 0.050000
v -0.350000 0.000000 -0.050000
v -0.150000 0.000000 0.250000
v -0.150000 0.000000 0.350000
v -0.350000 0.000000 -0.150000
v -0.250000 0.000000 -0.150000
v -0.250000 0.000000 -0.050000
v 0.050000 0.000000 -0.350000
v 0.050000 0.000000 -0.150000
v -0.150000 0.000000 -0.350000
v 0.150000 0.000000 0.350000
v -0.050000 0.000000 0.250000
v -0.050000 0.000000 0.350000
v -0.050000 0.000000 -0.350000
v 0.050000 0.000000 -0.250000
v 0.150000 0.000000 -0.250000
v 0.150000 0.000000 -0.150000
v 0.150000 0.000000 -0.350000
v 0.350000 0.000000 -0.150000
v -0.250000 0.200000 0.250000
v -0.250000 0.200000 0.150000
v -0.350000 0.200000 0.150000
v -0.350000 0.200000 0.050000
v -0.350000 0.200000 -0.050000
v -0.350000 0.200000 -0.150000
v -0.050000 0.200000 -0.150000
v -0.050000 0.200000 -0.250000
v 0.050000 0.200000 0.150000
v 0.050000 0.200000 0.050000
v -0.050000 0.200000 0.050000
v -0.050000 0.200000 -0.050000
v -0.250000 0.200000 -0.050000
v -0.250000 0.200000 -0.150000
v -0.250000 0.200000 -0.250000
v -0.150000 0.200000 0.250000
v -0.150000 0.200000 0.150000
v -0.150000 0.200000 -0.050000
v -0.150000 0.200000 -0.150000
v -0.150000 0.200000 -0.250000
v -0.150000 0.200000 -0.350000
v -0.050000 0.200000 0.350000
v -0.150000 0.200000 0.350000
v -0.050000 0.200000 0.250000
v -0.050000 0.200000 0.150000
v 0.150000 0.200000 -0.050000
v 0.150000 0.200000 -0.150000
v 0.050000 0.200000 -0.250000
v 0.050000 0.200000 -0.350000
v 0.050000 0.200000 0.350000
v 0.450000 0.200000 0.150000
v 0.450000 0.200000 0.050000
v 0.450000 0.200000 -0.050000
v 0.050000 0.200000 -0.150000
v 0.150000 0.200000 0.350000
v 0.150000 0.200000 0.150000
v 0.150000 0.200000 0.050000
v 0.450000 0.200000 -0.150000
v 0.150000 0.200000 -0.250000
v 0.150000 0.200000 -0.350000
v 0.250000 0.200000 0.150000
v 0.250000 0.200000 0.050000
v 0.250000 0.200000 -0.050000
v 0.250000 0.200000 -0.150000
v 0.250000 0.200000 -0.250000
v 0.350000 0.200000 0.150000
v 0.350000 0.200000 0.050000
vn -1.0000 -0.0000 -0.0000
vn 1.0000 -0.0000 -0.0000
vn -0.0000 -0.0000 1.0000
vn -0.0000 -0.0000 -1.0000
vn -0.0000 -1.0000 -0.0000
vn -0.0000 1.0000 -0.0000
vt 0.000000 0.000000
vt 1.000000 0.000000
vt 1.000000 1.000000
vt 0.000000 1.000000
s 0
usemtl purple_patty.vox_Material_249
f 1/1/1 2/2/1 3/3/1 4/4/1
f 7/1/1 6/2/1 9/3/1 10/4/1
f 6/1/1 8/2/1 11/3/1 12/4/1
f 14/1/1 13/2/1 15/3/1 9/4/1
f 16/1/1 17/2/1 18/3/1 19/4/1
f 22/1/1 23/2/1 24/3/1 25/4/1
f 27/1/1 30/2/1 31/3/1 28/4/1
f 32/1/1 33/2/1 34/3/1 35/4/1
f 39/1/2 38/2/2 40/3/2 41/4/2
f 42/1/2 43/2/2 44/3/2 45/4/2
f 46/1/2 47/2/2 48/3/2 49/4/2
f 50/1/2 51/2/2 52/3/2 53/4/2
f 59/1/2 60/2/2 61/3/2 62/4/2
f 57/1/2 63/2/2 64/3/2 58/4/2
f 65/1/2 67/2/2 68/3/2 66/4/2
f 70/1/3 72/2/3 73/3/3 71/4/3
f 27/1/3 71/2/3 74/3/3 30/4/3
f 75/1/3 77/2/3 78/3/3 76/4/3
f 73/1/3 39/2/3 41/3/3 79/4/3
f 16/1/3 29/2/3 28/3/3 17/4/3
f 37/1/3 46/2/3 49/3/3 40/4/3
f 1/1/3 19/2/3 21/3/3 2/4/3
f 80/1/3 59/2/3 62/3/3 48/4/3
f 10/1/4 15/2/4 23/3/4 22/4/4
f 53/1/4 55/2/4 61/3/4 60/4/4
f 25/1/4 24/2/4 33/3/4 32/4/4
f 42/1/4 81/2/4 52/3/4 51/4/4
f 35/1/4 34/2/4 82/3/4 83/4/4
f 86/1/4 87/2/4 88/3/4 89/4/4
f 92/1/4 93/2/4 44/3/4 43/4/4
f 84/1/4 82/2/4 87/3/4 85/4/4
f 90/1/4 88/2/4 93/3/4 91/4/4
f 1/1/5 4/2/5 94/3/5 47/4/5
f 7/1/5 97/2/5 98/3/5 99/4/5
f 97/1/5 10/2/5 22/3/5 100/4/5
f 16/1/5 19/2/5 101/3/5 102/4/5
f 96/1/5 95/2/5 63/3/5 57/4/5
f 103/1/5 25/2/5 106/3/5 107/4/5
f 105/1/5 104/2/5 67/3/5 65/4/5
f 32/1/5 35/2/5 83/3/5 108/4/5
f 70/1/5 102/2/5 109/3/5 72/4/5
f 111/1/5 110/2/5 47/3/5 46/4/5
f 112/1/5 86/2/5 89/3/5 106/4/5
f 113/1/5 106/2/5 51/3/5 50/4/5
f 115/1/5 114/2/5 50/3/5 117/4/5
f 116/1/5 92/2/5 43/3/5 42/4/5
f 2/1/6 118/2/6 119/3/6 3/4/6
f 8/1/6 121/2/6 122/3/6 11/4/6
f 13/1/6 124/2/6 125/3/6 15/4/6
f 120/1/6 126/2/6 127/3/6 121/4/6
f 122/1/6 130/2/6 131/3/6 123/4/6
f 23/1/6 132/2/6 33/3/6 24/4/6
f 30/1/6 74/2/6 133/3/6 118/4/6
f 33/1/6 45/2/6 44/3/6 34/4/6
f 140/1/6 49/2/6 48/3/6 133/4/6
f 135/1/6 143/2/6 144/3/6 136/4/6
f 137/1/6 145/2/6 146/3/6 138/4/6
f 76/1/6 78/2/6 147/3/6 139/4/6
f 141/1/6 62/2/6 148/3/6 142/4/6
f 128/1/6 149/2/6 150/3/6 129/4/6
f 151/1/6 155/2/6 61/3/6 145/4/6
f 79/1/6 41/2/6 40/3/6 152/4/6
f 153/1/6 158/2/6 159/3/6 154/4/6
f 156/1/6 162/2/6 45/3/6 157/4/6
f 160/1/6 150/2/6 155/3/6 161/4/6
f 163/1/6 148/2/6 149/3/6 164/4/6
usemtl purple_patty.vox_Material_250
f 4/1/1 5/2/1 6/3/1 7/4/1
f 12/1/1 11/2/1 13/3/1 14/4/1
f 17/1/1 20/2/1 21/3/1 18/4/1
f 36/1/2 37/2/2 38/3/2 39/4/2
f 53/1/2 52/2/2 54/3/2 55/4/2
f 63/1/2 65/2/2 66/3/2 64/4/2
f 72/1/3 36/2/3 39/3/3 73/4/3
f 71/1/3 75/2/3 76/3/3 74/4/3
f 17/1/3 28/2/3 31/3/3 20/4/3
f 81/1/4 45/2/4 54/3/4 52/4/4
f 83/1/4 84/2/4 85/3/4 86/4/4
f 4/1/5 7/2/5 95/3/5 96/4/5
f 108/1/5 83/2/5 86/3/5 112/4/5
f 72/1/5 109/2/5 37/3/5 36/4/5
f 99/1/5 98/2/5 65/3/5 63/4/5
f 11/1/6 122/2/6 123/3/6 13/4/6
f 20/1/6 31/2/6 118/3/6 21/4/6
f 121/1/6 128/2/6 129/3/6 122/4/6
f 118/1/6 133/2/6 134/3/6 119/4/6
f 132/1/6 137/2/6 138/3/6 33/4/6
f 74/1/6 76/2/6 139/3/6 140/4/6
f 124/1/6 151/2/6 145/3/6 125/4/6
f 126/1/6 153/2/6 154/3/6 127/4/6
f 143/1/6 160/2/6 161/3/6 144/4/6
f 162/1/6 55/2/6 54/3/6 45/4/6
usemtl purple_patty.vox_Material_251
f 5/1/1 3/2/1 8/3/1 6/4/1
f 26/1/1 27/2/1 28/3/1 29/4/1
f 56/1/2 57/2/2 58/3/2 59/4/2
f 67/1/2 69/2/2 60/3/2 68/4/2
f 26/1/3 70/2/3 71/3/3 27/4/3
f 77/1/3 73/2/3 79/3/3 78/4/3
f 47/1/3 56/2/3 59/3/3 80/4/3
f 50/1/4 53/2/4 60/3/4 69/4/4
f 89/1/4 90/2/4 91/3/4 92/4/4
f 100/1/5 103/2/5 104/3/5 105/4/5
f 26/1/5 29/2/5 102/3/5 70/4/5
f 102/1/5 101/2/5 110/3/5 111/4/5
f 107/1/5 113/2/5 114/3/5 115/4/5
f 106/1/5 89/2/5 92/3/5 116/4/5
f 47/1/5 94/2/5 57/3/5 56/4/5
f 117/1/5 50/2/5 69/3/5 67/4/5
f 3/1/6 120/2/6 121/3/6 8/4/6
f 130/1/6 135/2/6 136/3/6 131/4/6
f 133/1/6 141/2/6 142/3/6 134/4/6
f 78/1/6 79/2/6 152/3/6 147/4/6
f 145/1/6 156/2/6 157/3/6 146/4/6
f 158/1/6 163/2/6 164/3/6 159/4/6
