# Blender 3.6.7
# www.blender.org
mtllib burger_top_bun.mtl
o model_0
v -0.450000 0.000000 0.250000
v -0.450000 0.100000 0.250000
v -0.450000 0.100000 -0.250000
v -0.450000 0.000000 -0.250000
v -0.350000 0.000000 0.350000
v -0.350000 0.100000 0.350000
v -0.350000 0.100000 0.250000
v -0.350000 0.000000 0.250000
v -0.350000 0.200000 0.250000
v -0.350000 0.200000 -0.250000
v -0.350000 0.100000 -0.250000
v -0.350000 0.000000 -0.250000
v -0.350000 0.100000 -0.350000
v -0.350000 0.000000 -0.350000
v -0.250000 0.000000 0.450000
v -0.250000 0.100000 0.450000
v -0.250000 0.100000 0.350000
v -0.250000 0.000000 0.350000
v -0.250000 0.200000 0.350000
v -0.250000 0.200000 0.250000
v -0.250000 0.100000 0.250000
v -0.250000 0.300000 0.250000
v -0.250000 0.300000 -0.250000
v -0.250000 0.200000 -0.250000
v -0.250000 0.100000 -0.250000
v -0.250000 0.200000 -0.350000
v -0.250000 0.100000 -0.350000
v -0.250000 0.000000 -0.350000
v -0.250000 0.100000 -0.450000
v -0.250000 0.000000 -0.450000
v 0.250000 0.000000 0.450000
v 0.250000 0.000000 0.350000
v 0.250000 0.100000 0.350000
v 0.250000 0.100000 0.450000
v 0.250000 0.100000 0.250000
v 0.250000 0.200000 0.250000
v 0.250000 0.200000 0.350000
v 0.250000 0.200000 -0.250000
v 0.250000 0.300000 -0.250000
v 0.250000 0.300000 0.250000
v 0.250000 0.100000 -0.250000
v 0.250000 0.100000 -0.350000
v 0.250000 0.200000 -0.350000
v 0.250000 0.000000 -0.350000
v 0.250000 0.000000 -0.450000
v 0.250000 0.100000 -0.450000
v 0.350000 0.000000 0.350000
v 0.350000 0.000000 0.250000
v 0.350000 0.100000 0.250000
v 0.350000 0.100000 0.350000
v 0.350000 0.100000 -0.250000
v 0.350000 0.200000 -0.250000
v 0.350000 0.200000 0.250000
v 0.350000 0.000000 -0.250000
v 0.350000 0.000000 -0.350000
v 0.350000 0.100000 -0.350000
v 0.450000 0.000000 0.250000
v 0.450000 0.000000 -0.250000
v 0.450000 0.100000 -0.250000
v 0.450000 0.100000 0.250000
vn -1.0000 -0.0000 -0.0000
vn 1.0000 -0.0000 -0.0000
vn -0.0000 -0.0000 1.0000
vn -0.0000 -0.0000 -1.0000
vn -0.0000 -1.0000 -0.0000
vn -0.0000 1.0000 -0.0000
vt 0.000000 0.000000
vt 1.000000 0.000000
vt 1.000000 1.000000
vt 0.000000 1.000000
s 0
usemtl top_bun.vox_Material_233
f 1/1/1 2/2/1 3/3/1 4/4/1
f 5/1/1 6/2/1 7/3/1 8/4/1
f 7/1/1 9/2/1 10/3/1 11/4/1
f 12/1/1 11/2/1 13/3/1 14/4/1
f 15/1/1 16/2/1 17/3/1 18/4/1
f 17/1/1 19/2/1 20/3/1 21/4/1
f 20/1/1 22/2/1 23/3/1 24/4/1
f 25/1/1 24/2/1 26/3/1 27/4/1
f 28/1/1 27/2/1 29/3/1 30/4/1
f 31/1/2 32/2/2 33/3/2 34/4/2
f 33/1/2 35/2/2 36/3/2 37/4/2
f 36/1/2 38/2/2 39/3/2 40/4/2
f 41/1/2 42/2/2 43/3/2 38/4/2
f 44/1/2 45/2/2 46/3/2 42/4/2
f 47/1/2 48/2/2 49/3/2 50/4/2
f 49/1/2 51/2/2 52/3/2 53/4/2
f 54/1/2 55/2/2 56/3/2 51/4/2
f 57/1/2 58/2/2 59/3/2 60/4/2
f 15/1/3 31/2/3 34/3/3 16/4/3
f 5/1/3 18/2/3 17/3/3 6/4/3
f 32/1/3 47/2/3 50/3/3 33/4/3
f 17/1/3 33/2/3 37/3/3 19/4/3
f 1/1/3 8/2/3 7/3/3 2/4/3
f 48/1/3 57/2/3 60/3/3 49/4/3
f 7/1/3 21/2/3 20/3/3 9/4/3
f 35/1/3 49/2/3 53/3/3 36/4/3
f 20/1/3 36/2/3 40/3/3 22/4/3
f 4/1/4 3/2/4 11/3/4 12/4/4
f 54/1/4 51/2/4 59/3/4 58/4/4
f 11/1/4 10/2/4 24/3/4 25/4/4
f 41/1/4 38/2/4 52/3/4 51/4/4
f 24/1/4 23/2/4 39/3/4 38/4/4
f 14/1/4 13/2/4 27/3/4 28/4/4
f 44/1/4 42/2/4 56/3/4 55/4/4
f 27/1/4 26/2/4 43/3/4 42/4/4
f 30/1/4 29/2/4 46/3/4 45/4/4
f 1/1/5 4/2/5 58/3/5 57/4/5
f 2/1/6 7/2/6 11/3/6 3/4/6
f 5/1/5 8/2/5 48/3/5 47/4/5
f 6/1/6 17/2/6 21/3/6 7/4/6
f 12/1/5 14/2/5 55/3/5 54/4/5
f 11/1/6 25/2/6 27/3/6 13/4/6
f 15/1/5 18/2/5 32/3/5 31/4/5
f 16/1/6 34/2/6 33/3/6 17/4/6
f 28/1/5 30/2/5 45/3/5 44/4/5
f 27/1/6 42/2/6 46/3/6 29/4/6
f 33/1/6 50/2/6 49/3/6 35/4/6
f 41/1/6 51/2/6 56/3/6 42/4/6
f 49/1/6 60/2/6 59/3/6 51/4/6
f 9/1/6 20/2/6 24/3/6 10/4/6
f 19/1/6 37/2/6 36/3/6 20/4/6
f 24/1/6 38/2/6 43/3/6 26/4/6
f 36/1/6 53/2/6 52/3/6 38/4/6
f 22/1/6 40/2/6 39/3/6 23/4/6
